<?xml version="1.0" encoding="UTF-8" standalone="no"?>
<!-- Created with Inkscape (http://www.inkscape.org/) -->
<svg
   xmlns:dc="http://purl.org/dc/elements/1.1/"
   xmlns:cc="http://web.resource.org/cc/"
   xmlns:rdf="http://www.w3.org/1999/02/22-rdf-syntax-ns#"
   xmlns:svg="http://www.w3.org/2000/svg"
   xmlns="http://www.w3.org/2000/svg"
   xmlns:xlink="http://www.w3.org/1999/xlink"
   xmlns:sodipodi="http://sodipodi.sourceforge.net/DTD/sodipodi-0.dtd"
   xmlns:inkscape="http://www.inkscape.org/namespaces/inkscape"
   height="114.45032"
   width="476.22"
   id="svg8307"
   sodipodi:version="0.32"
   inkscape:version="0.44.1"
   version="1.0"
   sodipodi:docbase="D:\dokumenty\kot\do wiki\upload"
   sodipodi:docname="Python logo.svg">
  <defs
     id="defs8309">
    <linearGradient
       inkscape:collect="always"
       id="linearGradient11301">
      <stop
         style="stop-color:#ffe052;stop-opacity:1"
         offset="0"
         id="stop11303" />
      <stop
         style="stop-color:#ffc331;stop-opacity:1"
         offset="1"
         id="stop11305" />
    </linearGradient>
    <linearGradient
       inkscape:collect="always"
       id="linearGradient9515">
      <stop
         style="stop-color:#387eb8;stop-opacity:1"
         offset="0"
         id="stop9517" />
      <stop
         style="stop-color:#366994;stop-opacity:1"
         offset="1"
         id="stop9519" />
    </linearGradient>
    <linearGradient
       inkscape:collect="always"
       xlink:href="#linearGradient9515"
       id="linearGradient9521"
       x1="55.549179"
       y1="77.070274"
       x2="110.14919"
       y2="131.85291"
       gradientUnits="userSpaceOnUse" />
    <linearGradient
       inkscape:collect="always"
       xlink:href="#linearGradient11301"
       id="linearGradient11307"
       x1="89.136749"
       y1="111.92053"
       x2="147.77737"
       y2="168.1012"
       gradientUnits="userSpaceOnUse" />
  </defs>
  <sodipodi:namedview
     id="base"
     pagecolor="#ffffff"
     bordercolor="#666666"
     borderopacity="1.0"
     inkscape:pageopacity="0.0"
     inkscape:pageshadow="2"
     inkscape:cx="237.60933"
     inkscape:cy="57.225157"
     inkscape:zoom="1.9759325"
     inkscape:document-units="px"
     inkscape:current-layer="layer1"
     inkscape:window-width="1024"
     inkscape:window-height="682"
     inkscape:window-x="-4"
     inkscape:window-y="-4"
     width="476.22px"
     height="114.45032px" />
  <metadata
     id="metadata8312">
    <rdf:RDF>
      <cc:Work
         rdf:about="">
        <dc:format>image/svg+xml</dc:format>
        <dc:type
           rdf:resource="http://purl.org/dc/dcmitype/StillImage" />
      </cc:Work>
    </rdf:RDF>
  </metadata>
  <g
     inkscape:groupmode="layer"
     inkscape:label="Warstwa 1"
     id="layer1"
     transform="translate(-44.9375,-63.61218)">
    <g
       id="g1894">
      <path
         id="path8605"
         d="M 411.96875,93.96875 C 392.50446,93.96875 386.95088,113.95536 387.84375,121.8125 C 387.84375,126.27678 388.9159,151.12444 412.84375,150.9375 C 435.52232,150.75893 436.6327,126.47018 436.59375,122.1875 C 436.55473,118.07666 436.25446,93.968751 411.96875,93.96875 z M 412.3125,100.40625 C 414.5433,100.40625 427.3125,100.74108 427.3125,121.8125 C 427.31249,142.88392 418.74107,145.03125 412.3125,145.03125 C 405.88392,145.03124 397.5,141.66071 397.5,121.125 C 397.5,100.58929 409.90313,100.40625 412.3125,100.40625 z "
         style="opacity:1;color:black;fill:#646464;fill-opacity:1;fill-rule:nonzero;stroke:none;stroke-width:1;stroke-linecap:butt;stroke-linejoin:miter;marker:none;marker-start:none;marker-mid:none;marker-end:none;stroke-miterlimit:4;stroke-dasharray:none;stroke-dashoffset:0;stroke-opacity:1;visibility:visible;display:inline;overflow:visible" />
      <path
         id="path8593"
         d="M 210.34375,94.15625 C 195.34375,94.15625 186.78125,103.4375 186.78125,103.4375 L 186.78125,173.78125 L 196.0625,178.0625 L 196.0625,146.28125 C 196.0625,146.28125 202.50446,151.28124 213.21875,151.28125 C 223.93303,151.28125 233.9375,140.23214 233.9375,122.375 C 233.9375,104.51786 225.34374,94.156249 210.34375,94.15625 z M 209.28125,100.21875 C 216.78125,100.21875 224.09374,103.60268 224.09375,122.53125 C 224.09375,141.45982 215.8884,144.31249 209.28125,144.3125 C 202.67411,144.3125 196.25,139.31249 196.25,139.3125 L 196.0625,139.15625 L 196.0625,104.6875 C 196.0625,104.6875 201.78125,100.21875 209.28125,100.21875 z "
         style="opacity:1;color:black;fill:#646464;fill-opacity:1;fill-rule:nonzero;stroke:none;stroke-width:1;stroke-linecap:butt;stroke-linejoin:miter;marker:none;marker-start:none;marker-mid:none;marker-end:none;stroke-miterlimit:4;stroke-dasharray:none;stroke-dashoffset:0;stroke-opacity:1;visibility:visible;display:inline;overflow:visible" />
      <path
         sodipodi:nodetypes="cccsccccsscccscc"
         id="path8597"
         d="M 280.35714,95.397895 L 289.46429,95.397895 L 289.46429,148.25504 C 289.46429,148.25504 290.53571,162.18361 283.57143,169.32647 C 276.60714,176.46932 259.82143,177.71932 259.82143,177.71932 L 258.57143,172.54076 C 258.57143,172.54076 280.89286,170.93361 280.89286,153.43361 L 280.89286,146.29075 C 280.89286,146.29075 270.53571,150.75504 261.60714,150.75504 C 252.67857,150.75504 243.75,145.04075 243.75,134.50504 C 243.75,123.96932 243.75,97.183609 243.75,97.183609 L 253.12798,94.670788 L 253.12798,132.71932 C 253.12798,132.71932 252.5,144.32647 265.53571,144.32647 C 278.57143,144.32647 280.71429,139.32647 280.71429,139.32647 L 280.35714,95.397895 z "
         style="opacity:1;color:black;fill:#646464;fill-opacity:1;fill-rule:nonzero;stroke:none;stroke-width:1;stroke-linecap:butt;stroke-linejoin:miter;marker:none;marker-start:none;marker-mid:none;marker-end:none;stroke-miterlimit:4;stroke-dasharray:none;stroke-dashoffset:0;stroke-opacity:1;visibility:visible;display:inline;overflow:visible" />
      <path
         id="path8599"
         d="M 305.35714,80.576466 L 305.35714,80.576466 L 314.28571,77.719323 L 314.28571,95.397895 L 324.64286,95.397895 L 324.64286,101.29075 L 314.28571,101.29075 L 314.28571,136.64789 C 314.28571,136.64789 313.03571,145.39789 324.28571,145.39789 L 324.28571,150.75504 C 324.28571,150.75504 305.53571,150.93361 305.53571,138.25504 C 305.53571,125.57647 305.53571,101.11218 305.53571,101.11218 L 299.46429,101.11218 L 299.46429,95.397895 L 305.35714,95.397895 L 305.35714,80.576466 z "
         style="opacity:1;color:black;fill:#646464;fill-opacity:1;fill-rule:nonzero;stroke:none;stroke-width:1;stroke-linecap:butt;stroke-linejoin:miter;marker:none;marker-start:none;marker-mid:none;marker-end:none;stroke-miterlimit:4;stroke-dasharray:none;stroke-dashoffset:0;stroke-opacity:1;visibility:visible;display:inline;overflow:visible" />
      <path
         id="path8601"
         d="M 335.35714,66.112181 L 344.10714,63.612181 L 344.10714,101.46932 C 344.10714,101.46932 353.39286,95.040752 362.85714,95.040752 C 372.32143,95.040752 379.10714,103.43361 379.10714,109.14789 C 379.10714,114.86218 379.10714,149.86218 379.10714,149.86218 L 370.35714,149.86218 L 370.35714,113.43361 C 370.35714,113.43361 369.46429,100.93361 359.46429,100.93361 C 349.46429,100.93361 344.28572,107.89789 344.28572,107.89789 L 344.28572,150.04075 L 335.17857,150.04075 L 335.35714,66.112181 z "
         style="opacity:1;color:black;fill:#646464;fill-opacity:1;fill-rule:nonzero;stroke:none;stroke-width:1;stroke-linecap:butt;stroke-linejoin:miter;marker:none;marker-start:none;marker-mid:none;marker-end:none;stroke-miterlimit:4;stroke-dasharray:none;stroke-dashoffset:0;stroke-opacity:1;visibility:visible;display:inline;overflow:visible" />
      <path
         id="path8609"
         d="M 445.53572,149.86218 L 454.46429,149.86218 L 454.46429,104.32647 C 454.46429,104.32647 458.03572,99.862181 467.14286,99.862181 C 476.25,99.862181 479.82143,108.07647 479.82143,110.21932 C 479.82143,112.36218 479.82143,149.86218 479.82143,149.86218 L 489.10714,149.86218 L 489.10714,107.18361 C 489.10714,107.18361 487.85714,94.147895 470.71429,93.969323 C 453.57143,93.790752 445.35714,103.25504 445.35714,103.25504 L 445.53572,149.86218 z "
         style="opacity:1;color:black;fill:#646464;fill-opacity:1;fill-rule:nonzero;stroke:none;stroke-width:1;stroke-linecap:butt;stroke-linejoin:miter;marker:none;marker-start:none;marker-mid:none;marker-end:none;stroke-miterlimit:4;stroke-dasharray:none;stroke-dashoffset:0;stroke-opacity:1;visibility:visible;display:inline;overflow:visible" />
      <path
         id="text8611"
         d="M 502.40616,88.171577 L 502.40616,78.070015 L 498.63272,78.070015 L 498.63272,76.718452 L 507.71085,76.718452 L 507.71085,78.070015 L 503.92178,78.070015 L 503.92178,88.171577 L 502.40616,88.171577 z M 509.22647,88.171577 L 509.22647,76.718452 L 511.50772,76.718452 L 514.21866,84.827827 C 514.46865,85.583038 514.65094,86.148142 514.76553,86.52314 C 514.89573,86.106475 515.09886,85.494497 515.37491,84.687202 L 518.1171,76.718452 L 520.15616,76.718452 L 520.15616,88.171577 L 518.69522,88.171577 L 518.69522,78.58564 L 515.3671,88.171577 L 513.99991,88.171577 L 510.68741,78.421577 L 510.68741,88.171577 L 509.22647,88.171577 z "
         style="font-size:16px;font-style:normal;font-variant:normal;font-weight:normal;font-stretch:normal;text-align:start;line-height:125%;writing-mode:lr-tb;text-anchor:start;fill:#646464;fill-opacity:1;stroke:none;stroke-width:1px;stroke-linecap:butt;stroke-linejoin:miter;stroke-opacity:1;font-family:Arial" />
      <path
         id="path8615"
         d="M 99.75,67.46875 C 71.718268,67.468752 73.46875,79.625 73.46875,79.625 L 73.5,92.21875 L 100.25,92.21875 L 100.25,96 L 62.875,96 C 62.875,96 44.9375,93.965724 44.9375,122.25 C 44.937498,150.53427 60.59375,149.53125 60.59375,149.53125 L 69.9375,149.53125 L 69.9375,136.40625 C 69.9375,136.40625 69.433848,120.75 85.34375,120.75 C 101.25365,120.75 111.875,120.75 111.875,120.75 C 111.875,120.75 126.78125,120.99096 126.78125,106.34375 C 126.78125,91.696544 126.78125,82.125 126.78125,82.125 C 126.78125,82.124998 129.04443,67.46875 99.75,67.46875 z M 85,75.9375 C 87.661429,75.937498 89.8125,78.088571 89.8125,80.75 C 89.812502,83.411429 87.661429,85.5625 85,85.5625 C 82.338571,85.562502 80.1875,83.411429 80.1875,80.75 C 80.187498,78.088571 82.338571,75.9375 85,75.9375 z "
         style="opacity:1;color:black;fill:url(#linearGradient9521);fill-opacity:1;fill-rule:nonzero;stroke:none;stroke-width:1;stroke-linecap:butt;stroke-linejoin:miter;marker:none;marker-start:none;marker-mid:none;marker-end:none;stroke-miterlimit:4;stroke-dasharray:none;stroke-dashoffset:0;stroke-opacity:1;visibility:visible;display:inline;overflow:visible" />
      <path
         style="opacity:1;color:black;fill:url(#linearGradient11307);fill-opacity:1;fill-rule:nonzero;stroke:none;stroke-width:1;stroke-linecap:butt;stroke-linejoin:miter;marker:none;marker-start:none;marker-mid:none;marker-end:none;stroke-miterlimit:4;stroke-dasharray:none;stroke-dashoffset:0;stroke-opacity:1;visibility:visible;display:inline;overflow:visible"
         d="M 100.5461,177.31485 C 128.57784,177.31485 126.82735,165.1586 126.82735,165.1586 L 126.7961,152.56485 L 100.0461,152.56485 L 100.0461,148.7836 L 137.4211,148.7836 C 137.4211,148.7836 155.3586,150.81787 155.3586,122.53359 C 155.35861,94.249323 139.70235,95.252343 139.70235,95.252343 L 130.3586,95.252343 L 130.3586,108.37734 C 130.3586,108.37734 130.86226,124.03359 114.95235,124.03359 C 99.042448,124.03359 88.421098,124.03359 88.421098,124.03359 C 88.421098,124.03359 73.514848,123.79263 73.514848,138.43985 C 73.514848,153.08705 73.514848,162.6586 73.514848,162.6586 C 73.514848,162.6586 71.251668,177.31485 100.5461,177.31485 z M 115.2961,168.8461 C 112.63467,168.8461 110.4836,166.69503 110.4836,164.0336 C 110.4836,161.37217 112.63467,159.2211 115.2961,159.2211 C 117.95753,159.2211 120.1086,161.37217 120.1086,164.0336 C 120.10861,166.69503 117.95753,168.8461 115.2961,168.8461 z "
         id="path8620" />
    </g>
  </g>
</svg>
